<?xml version="1.0" standalone="no"?>
<!DOCTYPE svg PUBLIC "-//W3C//DTD SVG 20010904//EN"
 "http://www.w3.org/TR/2001/REC-SVG-20010904/DTD/svg10.dtd">
<svg version="1.0" xmlns="http://www.w3.org/2000/svg"
 width="512.000000pt" height="512.000000pt" viewBox="0 0 512.000000 512.000000"
 preserveAspectRatio="xMidYMid meet">
<metadata>
Created by potrace 1.14, written by Peter Selinger 2001-2017
</metadata>
<g transform="translate(0.000000,512.000000) scale(0.100000,-0.100000)"
fill="#000000" stroke="none">
<path d="M0 2560 l0 -2560 2560 0 2560 0 0 2560 0 2560 -2560 0 -2560 0 0
-2560z m3264 1686 c48 -8 89 -16 91 -18 10 -14 41 -86 64 -150 l27 -76 -68
-82 c-37 -45 -68 -86 -68 -90 0 -4 -7 -10 -15 -14 -22 -8 -228 24 -242 37 -7
7 -28 59 -48 116 -35 101 -35 104 -18 128 10 14 25 35 33 47 8 12 32 43 54 69
44 54 50 55 190 33z m-2319 -630 c122 -55 188 -154 188 -281 1 -86 -6 -117
-32 -153 -24 -33 -101 -109 -101 -99 0 4 -19 -3 -42 -15 -60 -32 -182 -31
-251 2 -67 32 -132 102 -158 169 -25 68 -23 186 5 240 21 40 102 121 122 121
8 0 14 5 14 12 0 6 2 9 6 6 3 -3 26 3 52 13 59 24 123 19 197 -15z m3465 -14
c0 -5 27 -47 60 -93 33 -46 60 -92 60 -101 0 -26 -87 -208 -102 -213 -7 -2
-62 -9 -123 -15 -126 -12 -107 -21 -190 100 -43 61 -57 111 -36 124 5 3 12 17
15 31 4 14 20 53 37 88 l30 64 107 10 c59 5 115 10 125 11 9 1 17 -2 17 -6z
m-2380 -173 c47 3 157 5 245 4 88 0 203 0 255 1 324 1 357 0 428 -18 l72 -18
1 -172 c2 -251 -2 -528 -7 -549 -5 -16 -23 -17 -237 -15 l-232 3 -12 55 c-6
30 -12 57 -13 60 -2 3 -8 -22 -14 -55 l-12 -60 -234 0 -235 0 -3 40 c-3 39
-16 65 -33 65 -4 0 -9 -24 -11 -52 l-3 -53 -238 -3 c-219 -2 -238 -1 -244 15
-3 10 -14 36 -24 59 -12 28 -20 79 -24 165 -7 131 8 364 25 384 6 7 13 33 16
58 4 26 12 51 18 55 10 8 123 27 216 36 19 2 76 1 125 -3 50 -3 128 -4 175 -2z
m1230 -244 c69 -7 145 -18 170 -24 25 -5 62 -13 83 -16 l37 -6 0 -98 c0 -77
-3 -100 -14 -104 -22 -8 -442 -10 -455 -2 -14 8 -15 205 -1 205 6 0 10 25 10
56 l0 55 23 -26 c20 -24 33 -27 147 -40z m-121 -351 c-12 -12 -27 -39 -34 -61
l-14 -38 -1 71 0 71 35 -11 34 -11 -20 -21z m-829 -234 c124 -1 308 -2 410 -2
102 0 205 -3 230 -7 42 -6 44 -7 23 -19 -45 -25 -14 -102 40 -102 12 0 54 17
92 38 l70 37 147 -1 c91 0 152 -5 160 -12 7 -6 44 -16 82 -23 38 -7 64 -15 57
-17 -7 -2 -11 -38 -11 -108 l0 -104 -80 0 c-71 0 -80 -2 -80 -19 0 -20 40 -31
116 -31 l41 0 7 -92 c10 -154 7 -363 -6 -376 -9 -9 -76 -12 -241 -12 l-229 0
6 -34 c6 -32 5 -34 -36 -51 -155 -62 -311 -85 -465 -67 -154 17 -310 75 -284
105 6 9 8 54 3 132 -7 114 -8 120 -29 123 -22 3 -23 1 -23 -90 0 -60 -4 -98
-12 -106 -8 -8 -59 -12 -163 -12 -104 0 -155 4 -163 12 -7 7 -12 38 -12 70 0
45 -3 58 -15 58 -12 0 -15 -13 -15 -58 0 -32 -5 -63 -12 -70 -13 -13 -431 -18
-462 -6 -9 3 -16 16 -16 28 0 21 -41 130 -54 143 -12 13 -5 21 24 27 28 5 30
8 30 53 0 27 3 85 7 131 6 79 5 82 -16 82 -20 0 -21 -5 -21 -74 0 -41 -4 -86
-10 -101 l-10 -25 -232 2 -233 3 -3 94 c-2 60 1 98 9 107 7 8 30 14 58 14 25
0 113 9 194 19 170 22 187 31 211 112 20 67 42 106 79 137 17 15 45 41 62 57
l30 30 235 6 c129 3 246 4 260 3 14 -2 126 -4 250 -4z m1813 -107 c4 -2 7 -51
7 -108 l0 -103 -66 -7 -66 -8 3 -246 c2 -135 0 -252 -4 -258 -6 -9 -35 -13
-90 -13 -114 0 -127 5 -127 46 0 18 -5 36 -10 39 -6 4 -22 25 -36 47 -21 32
-28 37 -40 28 -12 -11 -14 8 -14 137 0 87 -4 153 -10 159 -7 7 9 9 50 6 l60
-4 0 30 c0 35 -13 42 -81 42 l-49 0 0 109 0 110 43 4 c50 5 419 -3 430 -10z
m-3661 -594 c75 -16 138 -51 182 -99 59 -66 70 -100 71 -220 0 -124 -17 -168
-92 -243 -132 -132 -334 -143 -467 -26 -26 23 -59 62 -74 87 -25 44 -27 55
-27 157 0 96 3 116 24 159 45 89 145 166 243 185 62 12 80 12 140 0z m3993
-79 c49 -11 94 -26 100 -33 12 -13 58 -129 75 -187 10 -35 14 -29 -135 -198
-9 -10 -33 -8 -124 9 -130 25 -123 18 -171 161 l-33 97 59 67 c32 36 68 77 78
91 13 17 25 23 40 19 12 -3 61 -14 111 -26z"/>
<path d="M1981 3288 l4 -103 -90 -5 c-157 -9 -149 -37 12 -39 55 -1 83 -5 85
-13 11 -32 26 36 33 145 l7 117 -27 0 -27 0 3 -102z"/>
<path d="M2515 3291 l7 -98 -33 -12 c-17 -6 -43 -11 -55 -11 -13 0 -24 -4 -24
-10 0 -13 40 -22 80 -18 41 4 44 13 54 151 7 95 7 97 -14 97 -22 0 -22 -2 -15
-99z"/>
<path d="M2462 2908 c-19 -19 -14 -30 11 -26 12 2 22 9 22 17 0 19 -18 24 -33
9z"/>
<path d="M2307 2551 c-47 -10 -51 -14 -50 -54 1 -36 29 -150 44 -179 16 -29
65 -24 86 10 9 15 29 41 44 57 71 78 98 146 63 159 -28 11 -148 15 -187 7z"/>
<path d="M2180 2234 l0 -254 29 0 29 0 4 238 c3 130 1 242 -4 248 -5 7 -20 14
-33 17 l-25 4 0 -253z"/>
<path d="M1930 2430 c0 -38 4 -50 15 -50 11 0 15 12 15 50 0 38 -4 50 -15 50
-11 0 -15 -12 -15 -50z"/>
<path d="M3160 1995 c0 -8 7 -15 15 -15 8 0 15 7 15 15 0 8 -7 15 -15 15 -8 0
-15 -7 -15 -15z"/>
</g>
</svg>
